<?xml version="1.0" standalone="no"?>
<!DOCTYPE svg PUBLIC "-//W3C//DTD SVG 20010904//EN"
 "http://www.w3.org/TR/2001/REC-SVG-20010904/DTD/svg10.dtd">
<svg version="1.0" xmlns="http://www.w3.org/2000/svg"
 width="900.000000pt" height="900.000000pt" viewBox="0 0 900.000000 900.000000"
 preserveAspectRatio="xMidYMid meet">
<metadata>
Created by potrace 1.10, written by Peter Selinger 2001-2011
</metadata>
<g transform="translate(0.000000,900.000000) scale(0.100000,-0.100000)"
fill="#000000" stroke="none">
<path d="M941 8789 c-55 -24 -168 -104 -180 -127 -22 -42 -86 -431 -126 -757
-8 -71 -20 -166 -25 -210 -6 -44 -15 -127 -20 -185 -6 -58 -17 -172 -26 -255
-27 -270 -57 -616 -95 -1098 -16 -210 -18 -271 -9 -282 18 -22 1152 -22 1170
-1 9 11 9 41 1 123 -6 59 -13 160 -16 223 -8 164 -59 798 -75 940 -6 47 -15
132 -20 190 -40 441 -152 1216 -189 1306 -10 23 -93 81 -180 125 -68 35 -143
38 -210 8z"/>
<path d="M3218 8780 c-62 -31 -148 -93 -161 -115 -20 -36 -84 -419 -122 -735
-46 -372 -99 -900 -139 -1385 -9 -99 -23 -268 -32 -375 -9 -107 -15 -220 -13
-250 l4 -55 576 -3 c495 -2 578 0 589 12 12 15 5 203 -20 516 -20 253 -31 398
-40 515 -5 66 -14 167 -20 225 -6 58 -18 170 -26 250 -42 413 -100 836 -149
1085 -7 39 -16 90 -20 114 -9 68 -31 98 -104 146 -115 73 -144 85 -208 85 -44
-1 -72 -8 -115 -30z"/>
<path d="M5536 8779 c-59 -29 -130 -80 -153 -109 -7 -8 -15 -31 -18 -50 -3
-19 -12 -64 -20 -100 -44 -214 -104 -657 -150 -1120 -9 -85 -20 -195 -25 -245
-6 -49 -15 -144 -20 -210 -5 -66 -14 -169 -19 -230 -10 -102 -23 -264 -52
-625 -6 -80 -10 -163 -8 -185 l4 -40 583 -3 c531 -2 583 -1 589 14 15 40 -61
1036 -122 1589 -8 72 -17 150 -19 175 -20 190 -71 552 -110 770 -8 47 -20 114
-26 150 -18 104 -25 115 -104 163 -120 75 -150 87 -213 87 -44 -1 -72 -8 -117
-31z"/>
<path d="M7851 8789 c-55 -24 -168 -104 -179 -127 -10 -19 -14 -35 -42 -192
-44 -240 -114 -785 -145 -1135 -3 -33 -10 -100 -15 -150 -12 -116 -35 -371
-55 -605 -8 -102 -20 -241 -26 -310 -20 -229 -26 -375 -17 -392 8 -17 46 -18
583 -18 654 0 595 -9 588 94 -45 707 -70 1008 -123 1526 -6 58 -20 175 -31
260 -11 85 -24 193 -30 240 -5 47 -13 110 -18 140 -31 191 -44 265 -57 340
-39 216 -32 202 -127 264 -46 30 -100 61 -121 70 -51 21 -131 19 -185 -5z"/>
<path d="M468 5699 c-17 -9 -18 -35 -18 -322 0 -230 3 -316 12 -325 9 -9 154
-12 589 -12 517 0 577 2 583 16 3 9 6 155 6 324 0 296 -1 310 -19 320 -27 14
-1129 13 -1153 -1z"/>
<path d="M2750 5684 c-14 -35 -13 -600 0 -625 10 -18 27 -19 583 -19 432 0
576 3 585 12 9 9 12 95 12 325 0 299 -1 313 -19 323 -13 6 -215 10 -586 10
l-565 0 -10 -26z"/>
<path d="M5082 5694 c-22 -15 -22 -16 -22 -323 0 -225 3 -310 12 -319 9 -9
154 -12 590 -12 561 0 578 1 588 19 6 12 10 132 10 320 0 259 -2 302 -16 315
-14 14 -80 16 -577 16 -493 0 -565 -2 -585 -16z"/>
<path d="M7370 5691 c-11 -21 -15 -607 -4 -635 6 -14 66 -16 583 -16 435 0
580 3 589 12 9 9 12 94 12 319 0 266 -2 310 -16 323 -14 14 -80 16 -584 16
-553 0 -570 -1 -580 -19z"/>
<path d="M373 4838 c-43 -46 -113 -119 -156 -164 -42 -44 -74 -84 -70 -87 9
-10 1771 -9 1776 1 3 4 -27 41 -66 83 -40 41 -109 115 -154 162 l-81 87 -585
0 -586 0 -78 -82z"/>
<path d="M2614 4783 c-71 -75 -140 -147 -152 -160 -13 -12 -21 -27 -17 -32 7
-13 1761 -16 1769 -3 4 7 -122 149 -245 275 l-56 57 -585 0 -586 0 -128 -137z"/>
<path d="M5005 4857 c-149 -157 -244 -265 -238 -271 3 -3 404 -6 890 -6 674 0
883 3 883 12 0 6 -37 50 -82 98 -46 47 -114 118 -152 158 l-68 72 -586 0 -587
0 -60 -63z"/>
<path d="M7277 4833 c-45 -48 -114 -121 -154 -162 -39 -42 -69 -79 -67 -83 7
-10 1771 -10 1778 0 2 4 -30 43 -72 87 -42 45 -111 118 -153 163 l-77 82 -587
0 -587 0 -81 -87z"/>
<path d="M142 2458 l3 -2003 883 -3 c598 -1 889 1 903 8 19 11 19 38 17 2003
l-3 1992 -903 3 -902 2 2 -2002z"/>
<path d="M2427 4453 c-11 -10 -8 -3966 3 -3983 8 -13 120 -15 893 -18 700 -2
886 0 900 10 16 12 17 131 17 1996 0 1091 -2 1988 -6 1993 -6 10 -1797 13
-1807 2z"/>
<path d="M4757 4453 c-4 -3 -7 -898 -7 -1988 0 -1569 3 -1985 13 -1998 11 -16
72 -17 900 -15 776 3 889 5 897 18 6 9 9 760 7 2000 l-2 1985 -901 3 c-495 1
-904 -1 -907 -5z"/>
<path d="M7047 4453 c-4 -3 -7 -901 -7 -1994 0 -1956 0 -1988 19 -1999 31 -16
1762 -14 1784 3 16 11 17 140 15 2002 l-3 1990 -901 3 c-495 1 -904 -1 -907
-5z"/>
<path d="M136 334 c-11 -30 -7 -209 6 -222 16 -16 1759 -18 1789 -2 17 10 19
22 19 113 0 67 -4 107 -12 115 -9 9 -224 12 -904 12 -804 0 -892 -2 -898 -16z"/>
<path d="M2432 338 c-8 -8 -12 -48 -12 -115 0 -91 2 -103 20 -113 22 -12 1783
-10 1796 2 4 4 7 55 6 114 0 78 -4 109 -14 115 -22 14 -1782 11 -1796 -3z"/>
<path d="M4757 343 c-4 -3 -7 -57 -7 -119 0 -93 3 -113 16 -118 29 -11 1764
-7 1785 4 17 9 19 22 19 106 0 52 -5 104 -10 115 -10 19 -31 19 -904 19 -491
0 -896 -3 -899 -7z"/>
<path d="M7047 343 c-4 -3 -7 -57 -7 -119 0 -93 3 -113 16 -118 29 -11 1764
-7 1785 4 17 10 19 22 19 113 0 67 -4 107 -12 115 -9 9 -223 12 -903 12 -491
0 -895 -3 -898 -7z"/>
</g>
</svg>
